<?xml version="1.0" encoding="UTF-8"?>
<svg id="Layer_1" data-name="Layer 1" xmlns="http://www.w3.org/2000/svg" xmlns:xlink="http://www.w3.org/1999/xlink" viewBox="0 0 542.98 811.36">
  <defs>
    <style>
      .cls-1 {
        fill: #badefa;
      }

      .cls-2 {
        fill: #fff;
      }

      .cls-2, .cls-3 {
        stroke: #9a2220;
        stroke-miterlimit: 9.99;
        stroke-width: 1px;
      }

      .cls-4, .cls-5 {
        fill: none;
      }

      .cls-6 {
        fill: #a2bfd7;
      }

      .cls-3 {
        fill: #9a2220;
      }

      .cls-5 {
        clip-path: url(#clippath);
      }
    </style>
    <clipPath id="clippath">
      <rect class="cls-4" x="417.95" y="790.36" width="125.03" height="21"/>
    </clipPath>
  </defs>
  <g id="Group_102" data-name="Group 102">
    <g class="cls-5">
      <g id="Repeat_Grid_28" data-name="Repeat Grid 28">
        <g id="star">
          <g id="Layer_1-2" data-name="Layer 1">
            <path id="Path_52" data-name="Path 52" class="cls-3" d="m229.03,419.61l.81-4.68-3.39-3.32,4.7-.68,2.11-4.26,2.1,4.26,4.71.69-3.41,3.31.8,4.69-4.2-2.22-4.23,2.2Z"/>
          </g>
          <g id="Layer_2" data-name="Layer 2">
            <path id="Path_54" data-name="Path 54" class="cls-2" d="m233.35,408.82l1.27,2.89,2.94.5-2.17,2.19.45,3.16-2.61-1.53-2.66,1.45.55-3.14-2.1-2.26,2.96-.42,1.37-2.83Z"/>
          </g>
        </g>
        <g id="star-2">
          <g id="Layer_1-2" data-name="Layer 1-2">
            <path id="Path_52-2" data-name="Path 52-2" class="cls-3" d="m255.03,419.61l.81-4.68-3.39-3.32,4.7-.68,2.11-4.26,2.1,4.26,4.71.69-3.41,3.31.8,4.69-4.2-2.22-4.23,2.2Z"/>
          </g>
          <g id="Layer_2-2" data-name="Layer 2-2">
            <path id="Path_54-2" data-name="Path 54-2" class="cls-2" d="m259.35,408.82l1.27,2.89,2.94.5-2.17,2.19.45,3.16-2.61-1.53-2.66,1.45.55-3.14-2.1-2.26,2.96-.42,1.37-2.83Z"/>
          </g>
        </g>
        <g id="star-3">
          <g id="Layer_1-3" data-name="Layer 1-3">
            <path id="Path_52-3" data-name="Path 52-3" class="cls-3" d="m281.03,419.61l.81-4.68-3.39-3.32,4.7-.68,2.11-4.26,2.1,4.26,4.71.69-3.41,3.31.8,4.69-4.2-2.22-4.23,2.2Z"/>
          </g>
          <g id="Layer_2-3" data-name="Layer 2-3">
            <path id="Path_54-3" data-name="Path 54-3" class="cls-2" d="m285.35,408.82l1.27,2.89,2.94.5-2.17,2.19.45,3.16-2.61-1.53-2.66,1.45.55-3.14-2.1-2.26,2.96-.42,1.37-2.83Z"/>
          </g>
        </g>
        <g id="star-4">
          <g id="Layer_1-4" data-name="Layer 1-4">
            <path id="Path_52-4" data-name="Path 52-4" class="cls-3" d="m307.03,419.61l.81-4.68-3.39-3.32,4.7-.68,2.11-4.26,2.1,4.26,4.71.69-3.41,3.31.8,4.69-4.2-2.22-4.23,2.2Z"/>
          </g>
          <g id="Layer_2-4" data-name="Layer 2-4">
            <path id="Path_54-4" data-name="Path 54-4" class="cls-2" d="m311.35,408.82l1.27,2.89,2.94.5-2.17,2.19.45,3.16-2.61-1.53-2.66,1.45.55-3.14-2.1-2.26,2.96-.42,1.37-2.83Z"/>
          </g>
        </g>
        <g id="star-5">
          <g id="Layer_1-5" data-name="Layer 1-5">
            <path id="Path_52-5" data-name="Path 52-5" class="cls-3" d="m333.03,419.61l.81-4.68-3.39-3.32,4.7-.68,2.11-4.26,2.1,4.26,4.71.69-3.41,3.31.8,4.69-4.2-2.22-4.23,2.2Z"/>
          </g>
          <g id="Layer_2-5" data-name="Layer 2-5">
            <path id="Path_54-5" data-name="Path 54-5" class="cls-2" d="m337.35,408.82l1.27,2.89,2.94.5-2.17,2.19.45,3.16-2.61-1.53-2.66,1.45.55-3.14-2.1-2.26,2.96-.42,1.37-2.83Z"/>
          </g>
        </g>
      </g>
    </g>
  </g>
  <g id="Group_103" data-name="Group 103">
    <g id="Group_94" data-name="Group 94">
      <path id="Path_56" data-name="Path 56" class="cls-1" d="m15,.3c.28.2.5.46.66.77l.09.15c.11.34.14.69.11,1.05v.24c0,.21,0,.41,0,.62s0,.42,0,.63c0,.41,0,.82.01,1.24l.42-.42.12-.12c.23-.23.45-.46.65-.71.3-.36.74-.59,1.22-.61.39-.02.77.13,1.06.4.31.33.48.78.47,1.23-.2.69-.62,1.3-1.2,1.74l-.14.14q-.4.4-.59.59c-.2.2-.4.4-.58.62-.15.17-.32.31-.51.42-.47.25-.82.69-.96,1.21-.08,1.02-.07,2.05.03,3.07l.31-.18.1-.06.53-.31c.31-.18.62-.36.93-.52.36-.12.65-.38.79-.73.03-.13.05-.27.07-.4.05-.18.1-.37.16-.55l.09-.31c.25-.89.52-1.78.79-2.67.05-.17.1-.34.15-.51.11-.58.48-1.07,1-1.34.41-.14.86-.12,1.26.06.35.2.61.52.76.89.06.68-.06,1.36-.34,1.98-.09.26-.16.53-.23.8-.02.09-.06.17-.1.25l.08-.05.12-.07.14-.08.31-.18.83-.48.42-.24.2-.12q1.49-.86,2.34-.64c.48.17.88.52,1.12.97.22.47.23,1.02.04,1.5-.25.5-.67.9-1.19,1.13l-.53.3-.62.35c-.42.19-.82.43-1.18.71l.11.03c.41.1.82.2,1.24.31l.14.04c.6.1,1.12.46,1.43.98.14.31.16.66.07.98-.16.47-.51.85-.97,1.03-.62.13-1.26.08-1.84-.15l-.23-.06c-.22-.06-.45-.12-.67-.18-.55-.15-1.09-.29-1.64-.43l-.47-.12-.23-.06c-.15-.03-.29-.07-.44-.12-.17-.07-.36-.07-.52,0-.19.1-.38.2-.56.31l-.2.12c-.13.08-.27.16-.4.24-.22.13-.45.26-.67.39l-.27.16q-.3.18-.42.18v.11l.12.05c.17.07.34.16.5.25l.2.11.1.06.3.17.1.06.29.16c.13.07.25.15.37.23.2.17.45.27.71.28.07-.02.15-.04.22-.06l.31-.07.35-.09.17-.04c.39-.1.78-.2,1.16-.31.49-.14.98-.27,1.48-.4l.32-.08q1.45-.39,2.02-.1c.4.22.71.59.85,1.03.08.41,0,.83-.22,1.18-.08.1-.18.2-.28.28l-.11.11c-.22.14-.47.23-.73.28l-.16.04c-.43.11-.86.22-1.29.32-.14,0-.28.06-.4.14l.11.06.16.09.18.1.39.23c.31.18.62.36.93.53l.3.17.37.21c.57.28,1.03.76,1.29,1.35.12.5.05,1.03-.2,1.48-.31.43-.76.74-1.27.88-.1.01-.21.01-.31.02h-.16c-.52-.09-1.01-.29-1.44-.59l-.35-.21-.18-.11c-.31-.19-.63-.37-.94-.55l-.34-.2-.15-.08-.1-.06c.01.18.06.36.12.53l.08.26c.04.13.08.27.12.41.04.14.08.27.12.4l.04.12c.16.47.11.99-.14,1.42-.2.32-.52.55-.89.65-.4.1-.83.02-1.18-.2-.47-.37-.78-.9-.87-1.49l-.05-.19c-.06-.2-.12-.41-.18-.61l-.12-.42c-.1-.34-.2-.68-.29-1.02l-.14-.5c-.07-.25-.15-.51-.22-.76l-.03-.11-.09-.3-.05-.17c-.03-.08-.04-.16-.03-.24l-.14-.04c-.21-.08-.42-.19-.61-.31l-.25-.15-.14-.08c-.26-.15-.51-.3-.77-.45l-.72-.42c-.01.43-.02.86-.03,1.28,0,.15,0,.29,0,.44,0,.21,0,.42-.01.63v.2c-.04.31.07.61.28.84.09.09.18.17.27.26l.18.18.16.16.09.09.28.27c.35.32.68.67.98,1.03.25.28.53.54.8.8.52.39.87.97.94,1.62,0,.45-.2.87-.52,1.18-.33.27-.76.39-1.18.34-.76-.11-1.28-.82-1.75-1.37-.1-.11-.2-.21-.3-.32l-.1-.1-.08-.08v.13c0,.4,0,.8,0,1.2v.62c0,.21,0,.41,0,.6v.33c.04.58-.16,1.15-.55,1.57l-.1.09-.13.13c-.46.3-1.01.42-1.55.32-.5-.14-.93-.47-1.2-.92-.15-.32-.22-.66-.22-1.01v-.68c0-.21,0-.41,0-.62,0-.21,0-.42,0-.63,0-.41-.01-.83-.02-1.24l-.42.42-.12.12c-.23.23-.45.46-.66.71-.28.39-.71.66-1.19.73-.44.04-.87-.1-1.19-.4-.29-.28-.46-.67-.46-1.07.04-.9.73-1.46,1.34-2.05l.4-.4.1-.1c.19-.19.37-.39.55-.59.24-.27.5-.51.75-.76l.34-.34.15-.15.14-.15.16-.14c.16-.27.22-.58.16-.89v-.84c0-.14,0-.29,0-.43,0-.35,0-.71,0-1.06-.33.19-.67.37-1,.56-.26.15-.52.29-.79.44l-.36.2-.17.09c-.23.09-.42.26-.53.49-.02.08-.04.16-.06.24-.03.1-.06.2-.09.3l-.1.33-.05.18c-.09.31-.18.63-.27.94l-.08.27c-.09.3-.17.59-.25.89-.05.19-.11.38-.16.58-.03.1-.05.19-.08.29q-.27.99-.61,1.32l-.08.08c-.31.29-.73.43-1.15.38-.42-.04-.8-.25-1.06-.58-.25-.34-.35-.76-.28-1.18.07-.34.18-.68.28-1.01l.08-.27c.06-.27.15-.54.26-.79l-.67.37-.1.06c-.55.31-1.1.62-1.64.94-.5.35-1.12.5-1.73.42-.37-.11-.7-.32-.95-.62l-.11-.12c-.3-.44-.42-.98-.33-1.5.25-.68.78-1.23,1.45-1.51l.29-.16.2-.11c.24-.14.48-.28.72-.42l.2-.12.39-.23.17-.1.15-.09c.07-.05.15-.07.23-.06v-.11l-.2-.02c-.24-.03-.47-.07-.7-.13l-.12-.03q-1.62-.4-2.05-.99c-.19-.32-.25-.7-.18-1.07.17-.49.53-.9,1.01-1.12.58-.12,1.19-.07,1.75.15l.21.06c.3.08.61.17.91.25.57.16,1.14.31,1.71.44l.41.1.27.06.12.03.33.08.17.05c.18,0,.36-.05.51-.16l.1-.06c.1-.06.21-.12.31-.18l.21-.12.42-.25c.24-.14.48-.28.73-.42l.11-.06q.24-.13.36-.13v-.14l-.15-.05c-.17-.06-.32-.14-.48-.23l-.16-.1-.17-.1-.18-.1c-.28-.16-.56-.33-.83-.52-.31-.29-.73-.43-1.16-.39-.16.04-.31.09-.47.15-.8.27-1.62.46-2.44.66l-.39.1q-1.75.46-2.4.18c-.36-.21-.63-.55-.75-.95-.11-.44-.03-.91.22-1.29l.11-.11.08-.08c.23-.22.52-.36.83-.41l.14-.04c.15-.04.3-.07.45-.11l.31-.08c.28-.1.58-.16.88-.18v-.12l-.12-.05c-.15-.07-.3-.14-.45-.22l-.17-.09-.18-.1-.19-.1c-.42-.24-.84-.48-1.26-.72l-.15-.09q-.64-.38-.85-.74l-.08-.14-.08-.14-.07-.1c-.13-.45-.12-.94.04-1.39.22-.46.61-.81,1.09-.98l.14-.06c.42-.12.87-.08,1.26.12.48.23.93.52,1.39.79.3.18.6.35.9.52l.17.1q.25.14.51.28c-.03-.27-.09-.54-.17-.8l-.07-.23c-.04-.12-.07-.24-.11-.36-.27-.59-.29-1.26-.05-1.86.21-.32.53-.56.91-.67.49-.08,1,.04,1.4.34.37.44.61.97.69,1.53l.1.39.05.19c.13.48.27.95.42,1.43l.05.16c.03.11.07.22.1.33.09.27.16.55.2.83.01.42.19.81.51,1.09.25.15.5.28.76.39.32.15.63.34.93.52.17.1.34.2.52.3l.3.17c0-.43.01-.87.01-1.3,0-.15,0-.29,0-.44.12-.59.01-1.2-.3-1.72-.14-.12-.29-.24-.45-.34-.07-.07-.14-.15-.2-.23-.24-.29-.51-.54-.78-.81-.28-.26-.54-.53-.79-.82-.14-.17-.3-.32-.45-.48l-.13-.15-.28-.27c-.43-.36-.69-.87-.74-1.42.01-.45.2-.87.52-1.19.27-.2.6-.32.93-.34.51.06.98.31,1.31.7l.16.15c.26.26.52.52.76.81.12.13.24.26.37.38v-.13c0-.42,0-.85,0-1.27,0-.22,0-.43,0-.65,0-.22,0-.43,0-.63,0-.08,0-.16,0-.24-.04-.62.16-1.23.57-1.7.63-.61,1.61-.71,2.35-.23Z"/>
      <path id="Path_57" data-name="Path 57" class="cls-6" d="m15,.3c.28.2.5.46.66.77l.09.15c.11.34.14.69.11,1.05v.24c0,.21,0,.41,0,.62s0,.42,0,.63c0,.41,0,.82.01,1.24l.42-.42.12-.12c.23-.23.45-.46.65-.71.3-.36.74-.59,1.22-.61.39-.02.77.13,1.06.4.31.33.48.78.47,1.23-.2.69-.62,1.3-1.2,1.74l-.14.14q-.4.4-.59.59c-.2.2-.4.4-.58.62-.15.17-.32.31-.51.42-.47.25-.82.69-.96,1.21-.08,1.02-.07,2.05.03,3.07l.31-.18.1-.06.53-.31c.31-.18.62-.36.93-.52.36-.12.65-.38.79-.73.03-.13.05-.27.07-.4.05-.18.1-.37.16-.55l.09-.31c.25-.89.52-1.78.79-2.67.05-.17.1-.34.15-.51.11-.58.48-1.07,1-1.34.41-.14.86-.12,1.26.06.35.2.61.52.76.89.06.68-.06,1.36-.34,1.98-.09.26-.16.53-.23.8-.02.09-.06.17-.1.25l.08-.05.12-.07.14-.08.31-.18.83-.48.42-.24.2-.12q1.49-.86,2.34-.64c.48.17.88.52,1.12.97.22.47.23,1.02.04,1.5-.25.5-.67.9-1.19,1.13l-.53.3-.62.35c-.42.19-.82.43-1.18.71l.11.03c.41.1.82.2,1.24.31l.14.04c.6.1,1.12.46,1.43.98.14.31.16.66.07.98-.16.47-.51.85-.97,1.03-.62.13-1.26.08-1.84-.15l-.23-.06c-.22-.06-.45-.12-.67-.18-.55-.15-1.09-.29-1.64-.43l-.47-.12-.23-.06c-.15-.03-.29-.07-.44-.12-.17-.07-.36-.07-.52,0-.19.1-.38.2-.56.31l-.2.12c-.13.08-.27.16-.4.24-.22.13-.45.26-.67.39l-.27.16q-.3.18-.42.18v.11l.12.05c.17.07.34.16.5.25l.2.11.1.06.3.17.1.06.29.16c.13.07.25.15.37.23.2.17.45.27.71.28.07-.02.15-.04.22-.06l.31-.07.35-.09.17-.04c.39-.1.78-.2,1.16-.31.49-.14.98-.27,1.48-.4l.32-.08q1.45-.39,2.02-.1c.4.22.71.59.85,1.03.08.41,0,.83-.22,1.18-.08.1-.18.2-.28.28l-.11.11c-.22.14-.47.23-.73.28l-.16.04c-.43.11-.86.22-1.29.32-.14,0-.28.06-.4.14l.11.06.16.09.18.1.39.23c.31.18.62.36.93.53l.3.17.37.21c.57.28,1.03.76,1.29,1.35.12.5.05,1.03-.2,1.48-.31.43-.76.74-1.27.88-.1.01-.21.01-.31.02h-.16c-.52-.09-1.01-.29-1.44-.59l-.35-.21-.18-.11c-.31-.19-.63-.37-.94-.55l-.34-.2-.15-.08-.1-.06c.01.18.06.36.12.53l.08.26c.04.13.08.27.12.41.04.14.08.27.12.4l.04.12c.16.47.11.99-.14,1.42-.2.32-.52.55-.89.65-.4.1-.83.02-1.18-.2-.47-.37-.78-.9-.87-1.49l-.05-.19c-.06-.2-.12-.41-.18-.61l-.12-.42c-.1-.34-.2-.68-.29-1.02l-.14-.5c-.07-.25-.15-.51-.22-.76l-.03-.11-.09-.3-.05-.17c-.03-.08-.04-.16-.03-.24l-.14-.04c-.21-.08-.42-.19-.61-.31l-.25-.15-.14-.08c-.26-.15-.51-.3-.77-.45l-.72-.42c-.01.43-.02.86-.03,1.28,0,.15,0,.29,0,.44,0,.21,0,.42-.01.63v.2c-.04.31.07.61.28.84.09.09.18.17.27.26l.18.18.16.16.09.09.28.27c.35.32.68.67.98,1.03.25.28.53.54.8.8.52.39.87.97.94,1.62,0,.45-.2.87-.52,1.18-.33.27-.76.39-1.18.34-.76-.11-1.28-.82-1.75-1.37-.1-.11-.2-.21-.3-.32l-.1-.1-.08-.08v.13c0,.4,0,.8,0,1.2v.62c0,.21,0,.41,0,.6v.33c.04.58-.16,1.15-.55,1.57l-.1.09-.13.13c-.46.3-1.01.42-1.55.32-.5-.14-.93-.47-1.2-.92-.15-.32-.22-.66-.22-1.01v-.68c0-.21,0-.41,0-.62,0-.21,0-.42,0-.63,0-.41-.01-.83-.02-1.24l-.42.42-.12.12c-.23.23-.45.46-.66.71-.28.39-.71.66-1.19.73-.44.04-.87-.1-1.19-.4-.29-.28-.46-.67-.46-1.07.04-.9.73-1.46,1.34-2.05l.4-.4.1-.1c.19-.19.37-.39.55-.59.24-.27.5-.51.75-.76l.34-.34.15-.15.14-.15.16-.14c.16-.27.22-.58.16-.89v-.84c0-.14,0-.29,0-.43,0-.35,0-.71,0-1.06-.33.19-.67.37-1,.56-.26.15-.52.29-.79.44l-.36.2-.17.09c-.23.09-.42.26-.53.49-.02.08-.04.16-.06.24-.03.1-.06.2-.09.3l-.1.33-.05.18c-.09.31-.18.63-.27.94l-.08.27c-.09.3-.17.59-.25.89-.05.19-.11.38-.16.58-.03.1-.05.19-.08.29q-.27.99-.61,1.32l-.08.08c-.31.29-.73.43-1.15.38-.42-.04-.8-.25-1.06-.58-.25-.34-.35-.76-.28-1.18.07-.34.18-.68.28-1.01l.08-.27c.06-.27.15-.54.26-.79l-.67.37-.1.06c-.55.31-1.1.62-1.64.94-.5.35-1.12.5-1.73.42-.37-.11-.7-.32-.95-.62l-.11-.12c-.3-.44-.42-.98-.33-1.5.25-.68.78-1.23,1.45-1.51l.29-.16.2-.11c.24-.14.48-.28.72-.42l.2-.12.39-.23.17-.1.15-.09c.07-.05.15-.07.23-.06v-.11l-.2-.02c-.24-.03-.47-.07-.7-.13l-.12-.03q-1.62-.4-2.05-.99c-.19-.32-.25-.7-.18-1.07.17-.49.53-.9,1.01-1.12.58-.12,1.19-.07,1.75.15l.21.06c.3.08.61.17.91.25.57.16,1.14.31,1.71.44l.41.1.27.06.12.03.33.08.17.05c.18,0,.36-.05.51-.16l.1-.06c.1-.06.21-.12.31-.18l.21-.12.42-.25c.24-.14.48-.28.73-.42l.11-.06q.24-.13.36-.13v-.14l-.15-.05c-.17-.06-.32-.14-.48-.23l-.16-.1-.17-.1-.18-.1c-.28-.16-.56-.33-.83-.52-.31-.29-.73-.43-1.16-.39-.16.04-.31.09-.47.15-.8.27-1.62.46-2.44.66l-.39.1q-1.75.46-2.4.18c-.36-.21-.63-.55-.75-.95-.11-.44-.03-.91.22-1.29l.11-.11.08-.08c.23-.22.52-.36.83-.41l.14-.04c.15-.04.3-.07.45-.11l.31-.08c.28-.1.58-.16.88-.18v-.12l-.12-.05c-.15-.07-.3-.14-.45-.22l-.17-.09-.18-.1-.19-.1c-.42-.24-.84-.48-1.26-.72l-.15-.09q-.64-.38-.85-.74l-.08-.14-.08-.14-.07-.1c-.13-.45-.12-.94.04-1.39.22-.46.61-.81,1.09-.98l.14-.06c.42-.12.87-.08,1.26.12.48.23.93.52,1.39.79.3.18.6.35.9.52l.17.1q.25.14.51.28c-.03-.27-.09-.54-.17-.8l-.07-.23c-.04-.12-.07-.24-.11-.36-.27-.59-.29-1.26-.05-1.86.21-.32.53-.56.91-.67.49-.08,1,.04,1.4.34.37.44.61.97.69,1.53l.1.39.05.19c.13.48.27.95.42,1.43l.05.16c.03.11.07.22.1.33.09.27.16.55.2.83.01.42.19.81.51,1.09.25.15.5.28.76.39.32.15.63.34.93.52.17.1.34.2.52.3l.3.17c0-.43.01-.87.01-1.3,0-.15,0-.29,0-.44.12-.59.01-1.2-.3-1.72-.14-.12-.29-.24-.45-.34-.07-.07-.14-.15-.2-.23-.24-.29-.51-.54-.78-.81-.28-.26-.54-.53-.79-.82-.14-.17-.3-.32-.45-.48l-.13-.15-.28-.27c-.43-.36-.69-.87-.74-1.42.01-.45.2-.87.52-1.19.27-.2.6-.32.93-.34.51.06.98.31,1.31.7l.16.15c.26.26.52.52.76.81.12.13.24.26.37.38v-.13c0-.42,0-.85,0-1.27,0-.22,0-.43,0-.65,0-.22,0-.43,0-.63,0-.08,0-.16,0-.24-.04-.62.16-1.23.57-1.7.63-.61,1.61-.71,2.35-.23Zm-2.11.7c-.24.42-.33.9-.28,1.38v2.89c-.01.16-.11.31-.25.39-.19.07-.4.04-.56-.07-.12-.11-.23-.22-.34-.34l-.12-.13c-.13-.13-.26-.27-.39-.41l-.39-.4c-.08-.08-.16-.17-.24-.25l-.11-.12-.1-.1c-.22-.17-.49-.25-.76-.22-.31.08-.58.29-.74.58-.06.13-.08.27-.07.41v.16c.05.31.21.58.45.77.16.16.32.32.47.49.26.3.55.58.83.86.31.31.62.61.9.95.25.28.52.54.79.8l.24.23.14.14c.18.16.27.39.24.63v3.02c-.04.19-.15.35-.31.45-.22.04-.45-.02-.64-.15l-.17-.1-.18-.11-.29-.17-.2-.12c-.24-.14-.48-.28-.72-.41l-.2-.11c-.13-.07-.26-.14-.38-.21l-.17-.1-.15-.08c-.27-.33-.44-.72-.49-1.14l-.05-.19-.12-.4c-.06-.21-.12-.42-.18-.63-.16-.56-.33-1.13-.49-1.69-.05-.18-.1-.35-.15-.53-.03-.12-.07-.23-.1-.35l-.06-.21-.05-.18c-.12-.35-.38-.64-.72-.8-.29-.07-.6-.03-.87.11-.27.2-.43.52-.43.86.01.13.04.25.08.37l.03.11c.07.27.15.54.23.81l.06.21c.04.14.08.28.13.42l.06.2.05.18c.03.17.02.34-.02.5-.1.13-.25.2-.41.18-.19,0-.37-.07-.53-.17l-.18-.1-.19-.11-.2-.11c-.33-.19-.66-.38-.99-.58l-.18-.11-.33-.2c-.44-.35-1.01-.52-1.57-.45-.36.11-.67.35-.86.67-.19.41-.2.88-.02,1.29.32.4.73.72,1.21.92l.37.21.18.1c.35.19.69.39,1.03.6l.27.16.15.09.13.07q.1.07.21.24.04.34-.08.51c-.19.13-.4.21-.63.24l-.14.03-.45.11-.45.11-.28.07c-.4.09-.75.32-.98.67-.1.26-.09.54.03.79.13.25.33.44.59.56.58.04,1.16-.03,1.7-.23l.48-.12c.34-.09.68-.18,1.01-.27l1.18-.31.47-.12.29-.07.13-.04c.33-.1.69-.05.98.14l.17.1.18.1.19.11.38.22.53.3.31.18.14.08q.73.41.83.62c.02.11.02.22,0,.34-.17.2-.38.36-.61.48l-.1.05-.31.17-.42.24-.11.06c-.21.12-.42.24-.62.37l-.14.09c-.09.05-.17.11-.26.16-.3.19-.67.24-1.01.14-.18-.05-.36-.1-.54-.15l-.39-.11-.19-.05c-.23-.06-.45-.12-.68-.17-.36-.08-.71-.18-1.06-.28-.39-.11-.78-.2-1.17-.29-.2-.05-.39-.09-.58-.16-.27-.09-.56-.09-.83,0-.28.17-.49.43-.61.73-.05.3.03.61.22.84.17.16.37.28.6.34l.19.06c.38.1.76.2,1.14.29l.36.09.33.08c.12.03.23.06.34.1.06.18.08.37.06.56-.13.2-.31.36-.53.46l-.18.1-.2.1-.41.22-.1.06c-.35.19-.7.39-1.05.59l-.17.1c-.51.21-.92.6-1.15,1.1-.07.39,0,.79.21,1.12.26.33.64.54,1.05.58.55-.08,1.07-.3,1.51-.63.41-.25.82-.48,1.23-.71l.3-.17.18-.1c.11-.06.21-.13.32-.2.17-.03.33-.03.5,0,.1.07.18.16.22.28.01.29-.03.57-.12.84l-.08.26-.12.4c-.04.13-.08.26-.12.39l-.04.12c-.12.33-.13.7-.02,1.03.14.23.36.39.62.45.26.05.54,0,.77-.14.4-.41.65-.94.72-1.51l.09-.32.13-.44.16-.55.06-.22.12-.43.06-.21.06-.21c.06-.2.11-.4.17-.6l.1-.36.05-.17q.17-.61.42-.79l.15-.08.17-.09.18-.1.38-.21.1-.05c.35-.19.7-.39,1.05-.6l.17-.1q.3-.18.59-.36t.58.1c.12.15.17.35.15.54v2.46q0,.6-.25.88l-.09.1-.08.08-.09.09-.09.09c-.19.19-.38.38-.56.58-.3.34-.63.66-.95.98-.25.25-.5.5-.73.77-.22.25-.47.48-.71.71-.27.22-.46.53-.52.88-.03.29.07.58.27.78.17.18.41.28.66.27h.16c.37-.11.69-.34.92-.65l.11-.11c.21-.22.42-.44.62-.67q.47-.54.76-.6c.17-.02.34.05.46.18.11.16.15.35.13.54v2.84c-.04.43.07.85.32,1.2.29.27.67.43,1.06.45.33-.03.65-.17.9-.39.23-.27.36-.61.35-.97v-.34c0-.12,0-.25,0-.37,0-.35,0-.7,0-1.04,0-.21,0-.43,0-.64v-.78c.02-.17.08-.32.19-.45.17-.08.37-.1.56-.06.39.29.74.64,1.04,1.03.16.17.32.34.48.5l.11.11c.22.18.51.26.79.22.25-.04.47-.18.62-.39.11-.16.17-.35.17-.54v-.12c-.15-.53-.48-.98-.93-1.3l-.37-.37-.09-.09c-.19-.18-.36-.38-.54-.58-.24-.26-.49-.51-.75-.76-.34-.31-.66-.65-.96-1-.05-.06-.11-.12-.17-.18-.13-.17-.18-.37-.14-.58v-2.92c.03-.17.12-.33.25-.44.22-.06.45-.04.66.06.17.09.34.19.5.29l.18.11.38.22c.17.1.35.2.52.3l.16.09.3.17.14.08.12.07.12.08.17.11c.21.23.35.53.39.84l.06.2c.04.14.08.29.12.43.06.22.12.44.19.67.17.59.34,1.17.5,1.76.05.18.1.35.15.53.03.11.06.23.09.34.08.44.34.83.71,1.08.28.07.56.05.83-.03.23-.14.4-.35.49-.61.02-.3-.02-.6-.12-.89l-.08-.25-.12-.38q-.32-1-.24-1.39c.06-.11.16-.19.28-.22.25-.03.51.02.72.17l.19.11.2.12.21.12.43.25c.28.16.56.33.84.49l.38.22.17.1.15.09c.36.17.77.19,1.15.07.33-.17.6-.44.75-.78.1-.42.03-.87-.2-1.24-.33-.33-.72-.59-1.15-.79l-.4-.22-.1-.06c-.35-.19-.71-.39-1.05-.6l-.17-.1c-.27-.13-.51-.32-.71-.54-.03-.13-.03-.26,0-.39.2-.25.5-.41.82-.43l.16-.04c.17-.04.33-.08.5-.12l.5-.12.31-.07c.35-.07.66-.25.9-.52.09-.25.11-.52.06-.78-.05-.13-.12-.24-.22-.34l-.1-.13c-.24-.18-.55-.26-.85-.21-.17.03-.34.07-.51.12l-.15.04-.32.08-.5.13-1.07.28-1.24.32-.5.13-.3.08-.14.04c-.34.13-.73.11-1.06-.06l-.17-.1-.18-.1-.18-.11-.38-.22c-.19-.11-.39-.22-.58-.33l-.37-.21-.18-.1-.16-.09-.14-.08c-.15-.11-.25-.28-.25-.47.03-.19.14-.35.3-.45.2-.13.4-.24.6-.36l.18-.1.37-.21c.19-.11.39-.22.58-.34l.37-.22.18-.1.17-.1.15-.08c.31-.09.64-.08.95.03l.12.03.38.1.27.07.7.18.71.18.92.23.24.06c.2.05.4.1.6.15l.12.03.33.09c.27.08.57.05.82-.08.23-.13.41-.35.49-.6.07-.32-.02-.65-.22-.9-.25-.19-.53-.31-.84-.36l-.14-.03c-.2-.05-.4-.1-.6-.14l-.44-.11-.14-.03c-.24-.04-.46-.16-.64-.33-.07-.14-.09-.3-.06-.45.17-.19.37-.36.6-.48l.19-.11.1-.06.31-.18c.28-.16.56-.32.84-.47l.55-.31.17-.09c.41-.2.74-.53.94-.94.08-.45-.02-.92-.28-1.29-.26-.28-.61-.45-.98-.49-.99.27-1.91.74-2.71,1.38l-.48.28-.15.09q-.43.25-.71.2c-.11-.07-.21-.17-.28-.28-.01-.37.05-.73.18-1.07l.05-.19c.09-.32.19-.63.29-.94.16-.35.17-.75.03-1.11-.2-.27-.5-.43-.84-.45-.31,0-.6.13-.8.36-.2.32-.34.68-.41,1.05-.14.51-.28,1.02-.44,1.52-.18.58-.35,1.17-.52,1.76-.11.38-.22.76-.34,1.13-.04.08-.05.17-.04.26l-.12.05c-.15.06-.3.14-.44.22l-.16.1-.17.1-.36.21c-.23.14-.47.28-.7.42l-.31.18-.14.09c-.24.18-.54.25-.84.2-.14-.08-.24-.23-.26-.39v-.41c0-.08,0-.16,0-.24v-.75c0-.22,0-.43-.01-.65v-.74c-.05-.37.05-.74.28-1.03.13-.14.27-.26.41-.39.07-.07.13-.13.19-.2l.16-.16.09-.09.27-.27q.5-.5.98-1.02c.26-.28.54-.55.81-.81.43-.31.72-.78.81-1.3,0-.25-.09-.49-.27-.68-.18-.19-.44-.3-.71-.31h-.12c-.36.09-.67.3-.9.59l-.1.1c-.2.2-.39.41-.57.62q-.46.52-.74.62c-.17,0-.34-.06-.46-.18-.06-.14-.08-.3-.07-.45v-.69c0-.34,0-.68,0-1.02,0-.21,0-.42,0-.63,0-.08,0-.16,0-.24.04-.48-.06-.96-.29-1.38-.32-.34-.78-.51-1.24-.48-.37.04-.71.22-.95.5h0Z"/>
    </g>
  </g>
</svg>