<?xml version="1.0" encoding="UTF-8"?>
<svg id="Layer_1" data-name="Layer 1" xmlns="http://www.w3.org/2000/svg" xmlns:xlink="http://www.w3.org/1999/xlink" viewBox="0 0 540.26 805.04">
  <defs>
    <style>
      .cls-1, .cls-2 {
        fill: #fff;
      }

      .cls-1, .cls-3 {
        stroke: #9a2018;
        stroke-miterlimit: 10;
        stroke-width: 1px;
      }

      .cls-2, .cls-4 {
        stroke: #9a2220;
        stroke-miterlimit: 9.99;
        stroke-width: 1px;
      }

      .cls-5, .cls-6, .cls-7 {
        fill: none;
      }

      .cls-4 {
        fill: #9a2220;
      }

      .cls-6 {
        clip-path: url(#clippath);
      }

      .cls-7 {
        clip-path: url(#clippath-1);
      }

      .cls-3 {
        fill: #9a2018;
      }
    </style>
    <clipPath id="clippath">
      <rect class="cls-5" x="415.23" y="784.04" width="125.03" height="21"/>
    </clipPath>
    <clipPath id="clippath-1">
      <rect class="cls-5" width="125.03" height="21"/>
    </clipPath>
  </defs>
  <g id="Group_102" data-name="Group 102">
    <g class="cls-6">
      <g id="Repeat_Grid_28" data-name="Repeat Grid 28">
        <g id="star">
          <g id="Layer_1-2" data-name="Layer 1">
            <path id="Path_52" data-name="Path 52" class="cls-4" d="m226.3,413.29l.81-4.68-3.39-3.32,4.7-.68,2.11-4.26,2.1,4.26,4.71.69-3.41,3.31.8,4.69-4.2-2.22-4.23,2.2Z"/>
          </g>
          <g id="Layer_2" data-name="Layer 2">
            <path id="Path_54" data-name="Path 54" class="cls-2" d="m230.62,402.51l1.27,2.89,2.94.5-2.17,2.19.45,3.16-2.61-1.53-2.66,1.45.55-3.14-2.1-2.26,2.96-.42,1.37-2.83Z"/>
          </g>
        </g>
        <g id="star-2">
          <g id="Layer_1-2" data-name="Layer 1-2">
            <path id="Path_52-2" data-name="Path 52-2" class="cls-4" d="m252.3,413.29l.81-4.68-3.39-3.32,4.7-.68,2.11-4.26,2.1,4.26,4.71.69-3.41,3.31.8,4.69-4.2-2.22-4.23,2.2Z"/>
          </g>
          <g id="Layer_2-2" data-name="Layer 2-2">
            <path id="Path_54-2" data-name="Path 54-2" class="cls-2" d="m256.62,402.51l1.27,2.89,2.94.5-2.17,2.19.45,3.16-2.61-1.53-2.66,1.45.55-3.14-2.1-2.26,2.96-.42,1.37-2.83Z"/>
          </g>
        </g>
        <g id="star-3">
          <g id="Layer_1-3" data-name="Layer 1-3">
            <path id="Path_52-3" data-name="Path 52-3" class="cls-4" d="m278.3,413.29l.81-4.68-3.39-3.32,4.7-.68,2.11-4.26,2.1,4.26,4.71.69-3.41,3.31.8,4.69-4.2-2.22-4.23,2.2Z"/>
          </g>
          <g id="Layer_2-3" data-name="Layer 2-3">
            <path id="Path_54-3" data-name="Path 54-3" class="cls-2" d="m282.62,402.51l1.27,2.89,2.94.5-2.17,2.19.45,3.16-2.61-1.53-2.66,1.45.55-3.14-2.1-2.26,2.96-.42,1.37-2.83Z"/>
          </g>
        </g>
        <g id="star-4">
          <g id="Layer_1-4" data-name="Layer 1-4">
            <path id="Path_52-4" data-name="Path 52-4" class="cls-4" d="m304.3,413.29l.81-4.68-3.39-3.32,4.7-.68,2.11-4.26,2.1,4.26,4.71.69-3.41,3.31.8,4.69-4.2-2.22-4.23,2.2Z"/>
          </g>
          <g id="Layer_2-4" data-name="Layer 2-4">
            <path id="Path_54-4" data-name="Path 54-4" class="cls-2" d="m308.62,402.51l1.27,2.89,2.94.5-2.17,2.19.45,3.16-2.61-1.53-2.66,1.45.55-3.14-2.1-2.26,2.96-.42,1.37-2.83Z"/>
          </g>
        </g>
        <g id="star-5">
          <g id="Layer_1-5" data-name="Layer 1-5">
            <path id="Path_52-5" data-name="Path 52-5" class="cls-4" d="m330.3,413.29l.81-4.68-3.39-3.32,4.7-.68,2.11-4.26,2.1,4.26,4.71.69-3.41,3.31.8,4.69-4.2-2.22-4.23,2.2Z"/>
          </g>
          <g id="Layer_2-5" data-name="Layer 2-5">
            <path id="Path_54-5" data-name="Path 54-5" class="cls-2" d="m334.62,402.51l1.27,2.89,2.94.5-2.17,2.19.45,3.16-2.61-1.53-2.66,1.45.55-3.14-2.1-2.26,2.96-.42,1.37-2.83Z"/>
          </g>
        </g>
      </g>
    </g>
  </g>
  <g class="cls-7">
    <g id="Repeat_Grid_28-2" data-name="Repeat Grid 28">
      <g id="star-2" data-name="star">
        <g id="Layer_1-3" data-name="Layer 1">
          <path id="Path_52-2" data-name="Path 52" class="cls-3" d="m4.06,14.25l.81-4.68-3.4-3.32,4.7-.68,2.11-4.26,2.1,4.27,4.7.69-3.41,3.31.8,4.69-4.2-2.22-4.21,2.2Z"/>
        </g>
        <g id="Layer_2-2" data-name="Layer 2">
          <path id="Path_54-2" data-name="Path 54" class="cls-1" d="m8.39,3.47l1.27,2.89,2.94.5-2.17,2.2.45,3.16-2.61-1.53-2.66,1.45.55-3.14-2.1-2.26,2.95-.41,1.36-2.85Z"/>
        </g>
      </g>
      <g id="star-2-2" data-name="star-2">
        <g id="Layer_1-2-2" data-name="Layer 1-2">
          <path id="Path_52-2-2" data-name="Path 52-2" class="cls-3" d="m30.06,14.25l.81-4.68-3.4-3.32,4.7-.68,2.11-4.26,2.1,4.27,4.7.69-3.41,3.31.8,4.69-4.2-2.22-4.21,2.2Z"/>
        </g>
        <g id="Layer_2-2-2" data-name="Layer 2-2">
          <path id="Path_54-2-2" data-name="Path 54-2" class="cls-1" d="m34.39,3.47l1.27,2.89,2.94.5-2.17,2.2.45,3.16-2.61-1.53-2.66,1.45.55-3.14-2.1-2.26,2.95-.41,1.36-2.85Z"/>
        </g>
      </g>
      <g id="star-3-2" data-name="star-3">
        <g id="Layer_1-3-2" data-name="Layer 1-3">
          <path id="Path_52-3-2" data-name="Path 52-3" class="cls-3" d="m56.06,14.25l.81-4.68-3.4-3.32,4.7-.68,2.11-4.26,2.1,4.27,4.7.69-3.41,3.31.8,4.69-4.2-2.22-4.21,2.2Z"/>
        </g>
        <g id="Layer_2-3-2" data-name="Layer 2-3">
          <path id="Path_54-3-2" data-name="Path 54-3" class="cls-1" d="m60.39,3.47l1.27,2.89,2.94.5-2.17,2.2.45,3.16-2.61-1.53-2.66,1.45.55-3.14-2.1-2.26,2.95-.41,1.36-2.85Z"/>
        </g>
      </g>
      <g id="star-4-2" data-name="star-4">
        <g id="Layer_1-4-2" data-name="Layer 1-4">
          <path id="Path_52-4-2" data-name="Path 52-4" class="cls-3" d="m82.06,14.25l.81-4.68-3.4-3.32,4.7-.68,2.11-4.26,2.1,4.27,4.7.69-3.41,3.31.8,4.69-4.2-2.22-4.21,2.2Z"/>
        </g>
        <g id="Layer_2-4-2" data-name="Layer 2-4">
          <path id="Path_54-4-2" data-name="Path 54-4" class="cls-1" d="m86.39,3.47l1.27,2.89,2.94.5-2.17,2.2.45,3.16-2.61-1.53-2.66,1.45.55-3.14-2.1-2.26,2.95-.41,1.36-2.85Z"/>
        </g>
      </g>
      <g id="star-5-2" data-name="star-5">
        <g id="Layer_1-5-2" data-name="Layer 1-5">
          <path id="Path_52-5-2" data-name="Path 52-5" class="cls-3" d="m108.06,14.25l.81-4.68-3.4-3.32,4.7-.68,2.11-4.26,2.1,4.27,4.7.69-3.41,3.31.8,4.69-4.2-2.22-4.21,2.2Z"/>
        </g>
        <g id="Layer_2-5-2" data-name="Layer 2-5">
          <path id="Path_54-5-2" data-name="Path 54-5" class="cls-1" d="m112.39,3.47l1.27,2.89,2.94.5-2.17,2.2.45,3.16-2.61-1.53-2.66,1.45.55-3.14-2.1-2.26,2.95-.41,1.36-2.85Z"/>
        </g>
      </g>
    </g>
  </g>
</svg>